# xmcd
#
# Track frame offsets:
#	150
#	11220
#	27607
#	39370
#	50607
#	66750
#	83570
#	97310
#	111852
#	124892
#	139672
#	153117
#
# Disc length: 2268 seconds
#
# Revision: 0
# Processed by: cddbd v1.4PL0 Copyright (c) Steve Scherf et al.
# Submitted via: EZCDDA 4.3.3.2
#
DISCID=a108da0c
DTITLE=Dan Melchoir's Broke Revue - This Love is Real
DYEAR=1900
DGENRE=
TTITLE0=The Longest Train
TTITLE1=Your Happy Home
TTITLE2=Laughing to Keep from Crying
TTITLE3=Crow Jane
TTITLE4=Waiting for my Baby
TTITLE5=Bottom of the Sea
TTITLE6=Wrong Inside
TTITLE7=You Gotta move
TTITLE8=2 Men
TTITLE9=Falling Heart
TTITLE10=Don't Let our Love go to Waste
TTITLE11=You don't Deserve Me
EXTD=
EXTT0=
EXTT1=
EXTT2=
EXTT3=
EXTT4=
EXTT5=
EXTT6=
EXTT7=
EXTT8=
EXTT9=
EXTT10=
EXTT11=
PLAYORDER=
